<?xml version="1.0" standalone="no"?>
<!DOCTYPE svg PUBLIC "-//W3C//DTD SVG 20010904//EN"
 "http://www.w3.org/TR/2001/REC-SVG-20010904/DTD/svg10.dtd">
<svg version="1.0" xmlns="http://www.w3.org/2000/svg"
 width="1024.000000pt" height="1024.000000pt" viewBox="0 0 1024.000000 1024.000000"
 preserveAspectRatio="xMidYMid meet">

<g transform="translate(0.000000,1024.000000) scale(0.100000,-0.100000)"
fill="#000000" stroke="none">
<path d="M0 5120 l0 -5120 5120 0 5120 0 0 5120 0 5120 -5120 0 -5120 0 0
-5120z m3071 2741 c118 -40 204 -116 256 -228 31 -64 37 -87 41 -170 l5 -95
32 60 c58 110 146 196 255 252 160 82 356 62 530 -53 49 -33 170 -144 163
-150 -2 -2 -25 0 -51 6 -83 17 -396 13 -486 -7 -142 -31 -261 -84 -343 -153
l-28 -23 45 18 c92 38 145 47 260 47 124 -1 175 -13 280 -65 73 -37 189 -145
237 -223 43 -68 93 -185 93 -218 0 -19 -5 -16 -47 19 -58 48 -114 77 -179 93
-60 15 -87 31 -104 64 -19 35 -26 31 -34 -15 -7 -42 -16 -49 -35 -26 -6 8 -45
41 -86 75 -73 60 -74 61 -65 29 12 -41 7 -45 -27 -21 -82 56 -316 135 -355
120 -7 -3 -2 -6 11 -6 34 -1 129 -62 183 -118 55 -57 110 -154 134 -238 23
-80 15 -250 -17 -352 -12 -40 -25 -73 -29 -73 -4 0 -14 28 -24 63 -9 34 -33
90 -52 125 -32 60 -34 66 -28 135 6 78 2 78 -38 2 l-21 -40 -10 30 c-5 17 -42
98 -82 180 -39 83 -78 167 -85 189 l-12 38 -18 -53 c-122 -364 -169 -571 -191
-841 -18 -229 13 -524 83 -775 17 -62 29 -116 25 -119 -10 -10 -228 -17 -290
-10 -38 5 -58 13 -62 24 -4 9 -10 114 -12 232 -11 443 70 830 269 1290 27 63
58 129 67 145 10 17 30 52 46 79 l28 49 -37 -28 c-43 -33 -128 -133 -159 -187
-26 -45 -32 -47 -42 -10 -7 25 -10 22 -46 -53 -21 -44 -39 -86 -39 -92 0 -7
-4 -13 -10 -13 -5 0 -10 6 -10 13 0 6 -7 20 -14 30 -13 16 -22 2 -99 -145 -47
-90 -89 -176 -93 -192 -9 -35 -18 -25 -43 49 -30 93 -37 198 -17 288 48 213
256 390 501 426 l60 9 -57 1 c-136 3 -349 -39 -455 -90 -45 -21 -84 -39 -87
-39 -3 0 -6 25 -6 56 l0 57 -52 -49 c-29 -28 -114 -93 -188 -146 -74 -53 -145
-106 -157 -117 -12 -12 -25 -21 -28 -21 -11 0 -4 98 10 155 66 256 269 418
542 432 172 10 369 -46 472 -132 38 -33 40 -25 4 23 -103 139 -223 251 -327
304 -65 33 -172 67 -257 80 -44 7 -79 15 -79 19 0 11 157 79 218 94 72 18 188
12 263 -14z m2187 -773 c70 -50 172 -123 227 -162 55 -38 145 -103 200 -143
l100 -74 3 71 c2 58 6 70 20 70 9 0 81 -5 160 -12 l142 -12 0 -175 0 -176 234
-167 c644 -459 779 -558 771 -566 -4 -5 -123 19 -190 38 -61 18 -395 69 -557
86 l-168 17 0 93 0 93 -227 154 c-126 85 -369 252 -542 370 l-315 217 -27 -18
c-15 -9 -261 -172 -547 -362 l-521 -345 0 -296 -1 -296 -147 -32 c-82 -18
-165 -36 -185 -41 l-38 -8 0 248 0 248 -57 6 c-32 3 -101 8 -153 11 -123 7
-171 15 -165 25 5 9 28 24 640 428 220 146 582 386 804 533 222 148 406 269
408 269 2 0 61 -41 131 -92z m-160 -825 l3 -103 -111 0 -110 0 0 98 c0 54 3
102 7 106 4 4 52 5 107 4 l101 -3 3 -102z m252 2 l0 -105 -105 0 -105 0 0 105
0 105 105 0 105 0 0 -105z m-252 -257 l3 -108 -111 0 -110 0 0 110 0 111 108
-3 107 -3 3 -107z m250 0 l3 -108 -106 0 -105 0 0 111 0 110 103 -3 102 -3 3
-107z m1012 -293 c314 -45 575 -129 869 -279 51 -26 91 -49 89 -52 -3 -2 -40
5 -84 16 -240 59 -570 95 -804 86 -425 -15 -647 -67 -1405 -331 -645 -223
-924 -285 -1295 -285 -361 0 -669 87 -980 278 -90 55 -183 122 -178 128 3 2
20 -1 39 -6 135 -40 421 -62 613 -49 302 20 496 59 1081 215 721 193 1065 265
1410 294 149 12 516 4 645 -15z m473 -350 c157 -17 339 -58 463 -103 101 -37
276 -113 271 -118 -2 -2 -73 7 -158 22 -585 97 -1194 34 -2369 -246 -137 -33
-372 -85 -517 -115 -65 -13 -31 11 60 44 50 18 191 71 312 117 409 157 450
172 570 212 288 96 598 170 800 190 146 15 415 13 568 -3z m-4853 -1190 l0
-345 -60 0 -60 0 0 345 0 345 60 0 60 0 0 -345z m-403 313 c5 -7 47 -116 93
-243 45 -126 98 -268 116 -315 19 -46 34 -88 34 -93 0 -4 -30 -7 -67 -5 l-67
3 -25 78 -25 78 -125 -3 -125 -3 -24 -77 -23 -78 -60 0 c-32 0 -59 4 -59 10 0
5 29 90 64 187 35 98 87 244 116 326 l52 147 58 0 c34 0 61 -5 67 -12z m2751
-141 l3 -138 129 2 129 1 3 136 3 137 39 3 c22 2 50 1 63 -2 l23 -6 0 -326 0
-325 -62 3 -63 3 -3 133 -3 132 -129 0 -130 0 0 -135 0 -135 -65 0 -65 0 0
323 c0 178 3 327 7 331 4 4 32 6 63 4 l55 -3 3 -138z m2552 120 c37 -13 40
-24 18 -80 -9 -23 -15 -27 -32 -22 -51 17 -153 17 -184 1 -62 -32 -49 -99 25
-132 157 -70 184 -86 208 -122 20 -30 25 -49 25 -100 0 -36 -6 -75 -15 -91
-48 -95 -184 -132 -346 -95 -75 17 -79 22 -58 85 7 19 13 35 14 37 1 1 15 -2
31 -9 93 -35 212 -30 234 11 16 30 12 85 -7 103 -10 8 -55 31 -100 50 -107 45
-142 71 -165 125 -23 52 -19 109 12 159 19 32 79 76 116 86 38 10 190 6 224
-6z m280 -132 c0 -45 4 -65 13 -66 6 -1 19 -2 27 -3 8 -2 30 -3 48 -4 26 -2
32 -6 32 -24 0 -37 -12 -68 -24 -67 -6 1 -30 1 -53 0 l-43 -1 0 -112 c0 -130
9 -148 71 -148 36 0 38 -2 45 -36 9 -46 -3 -54 -84 -54 -119 0 -152 35 -152
160 0 47 -3 108 -6 137 -6 49 -8 52 -38 55 -29 3 -31 6 -34 46 l-3 42 35 0
c39 0 43 7 48 85 3 35 6 41 33 46 17 4 42 7 58 8 27 1 27 1 27 -64z m1740 -90
l0 -54 43 -3 c38 -3 42 -6 45 -30 3 -27 2 -28 -45 -28 l-48 0 2 -101 c1 -57 6
-106 12 -112 6 -6 27 -11 46 -11 33 0 35 -2 35 -33 0 -29 -4 -33 -35 -39 -46
-8 -98 2 -127 25 -21 18 -23 27 -26 145 l-4 126 -29 0 c-26 0 -29 4 -29 30 0
27 3 30 30 30 29 0 30 1 30 49 l0 50 43 9 c23 5 45 7 50 5 4 -2 7 -28 7 -58z
m-6484 24 l46 -12 -4 -236 -3 -236 -28 -43 c-32 -49 -102 -88 -180 -98 -47 -7
-173 12 -182 27 -3 4 0 29 6 54 8 32 16 45 25 41 8 -3 43 -10 79 -17 106 -18
154 9 168 93 l6 38 -27 -14 c-76 -39 -183 -27 -238 28 -55 55 -67 181 -24 266
21 42 41 60 100 94 38 22 57 26 128 26 46 0 103 -5 128 -11z m401 -8 c69 -32
77 -54 81 -216 3 -107 7 -142 18 -148 17 -10 18 -49 2 -65 -19 -19 -73 -14
-101 8 l-26 21 -40 -21 c-51 -26 -136 -29 -180 -6 -60 31 -77 121 -34 181 27
38 93 65 172 72 67 6 71 7 71 30 0 73 -78 92 -193 47 -11 -4 -18 5 -27 31 -14
44 -10 49 55 68 70 22 151 21 202 -2z m1210 -2 c61 -30 93 -86 93 -167 l0 -62
-146 0 -146 0 6 -32 c3 -18 20 -46 37 -62 30 -27 35 -28 108 -24 42 3 83 8 92
12 12 5 18 -2 27 -31 6 -21 8 -40 4 -44 -19 -17 -82 -29 -147 -29 -121 0 -183
32 -221 114 -40 85 -31 191 23 264 56 75 182 104 270 61z m1110 -8 c65 -32 95
-86 101 -175 10 -167 -66 -255 -222 -256 -148 0 -236 91 -236 244 0 75 56 155
135 193 63 30 157 28 222 -6z m492 15 c15 -8 33 -22 40 -30 11 -14 19 -12 64
11 39 20 67 27 114 27 58 1 65 -2 95 -32 l33 -32 3 -190 4 -190 -60 0 c-59 0
-60 0 -66 31 -3 17 -6 91 -6 164 0 106 -3 135 -15 145 -18 15 -77 7 -111 -15
-24 -15 -24 -18 -24 -170 l0 -155 -60 0 -60 0 0 159 c0 135 -3 162 -17 176
-19 19 -71 13 -115 -13 l-28 -16 0 -153 0 -153 -60 0 -60 0 2 218 3 217 50 0
c45 0 50 -2 53 -23 3 -17 7 -20 15 -13 23 19 112 50 145 50 18 1 45 -5 61 -13z
m717 -5 c69 -32 109 -105 102 -189 l-3 -37 -142 -3 -143 -3 0 -24 c0 -35 48
-85 91 -94 20 -5 56 -5 80 0 24 4 52 9 63 11 14 2 22 -7 32 -35 13 -37 13 -38
-14 -49 -40 -17 -189 -22 -234 -9 -45 14 -102 62 -125 105 -26 48 -23 170 4
221 58 109 182 154 289 106z m1271 0 c68 -32 77 -55 81 -211 3 -102 7 -139 19
-152 10 -11 13 -26 8 -47 -6 -28 -10 -31 -45 -31 -22 0 -47 8 -61 19 -23 18
-24 18 -69 -1 -57 -25 -135 -27 -177 -5 -86 45 -81 176 8 222 17 9 69 22 115
28 81 11 84 12 84 38 0 65 -86 84 -194 43 -13 -5 -36 41 -36 71 0 15 110 43
175 44 29 0 68 -7 92 -18z m-4525 -20 l8 -22 37 25 c35 23 46 25 138 23 l100
-2 50 -147 c28 -82 52 -148 55 -148 3 0 28 67 56 148 l50 147 57 3 c31 2 57
-1 57 -5 0 -4 -37 -104 -82 -220 l-83 -213 -60 0 -60 0 -47 118 c-115 285
-117 291 -118 250 0 -37 -1 -38 -37 -38 -48 0 -101 -32 -109 -66 -4 -14 -4
-58 0 -96 3 -39 3 -93 0 -120 l-7 -49 -56 3 -56 3 -1 210 c0 116 1 212 2 215
1 3 24 4 50 4 39 -1 49 -5 56 -23z m4832 -123 c44 -120 66 -163 66 -129 0 5
21 66 46 135 l46 126 59 0 58 0 -45 -107 c-24 -60 -77 -188 -116 -286 -74
-184 -98 -221 -149 -232 -60 -13 -79 41 -32 91 14 15 34 47 45 70 18 43 18 43
-6 106 -14 35 -54 129 -89 210 -36 80 -62 149 -59 153 3 3 33 5 66 3 l60 -3
50 -137z m718 71 c13 -5 34 -26 48 -46 21 -31 25 -47 24 -112 -1 -85 -16 -124
-63 -164 -33 -27 -96 -43 -133 -32 -63 18 -58 24 -58 -69 l0 -86 -45 0 -45 0
0 255 0 255 40 0 c28 0 40 -4 40 -15 0 -11 8 -11 43 5 46 22 114 26 149 9z
m-364 -265 c41 -29 18 -104 -33 -104 -55 0 -74 82 -25 107 32 16 31 16 58 -3z
m-1593 -349 c699 -4 1306 -11 1350 -14 47 -4 -137 -10 -445 -15 -289 -4 -559
-10 -600 -12 -156 -7 -2811 -10 -3395 -4 -1421 17 -1851 33 -1025 40 725 6
2489 15 2665 14 99 -1 752 -5 1450 -9z m-3765 -211 c0 -12 -35 -33 -55 -33
-18 -1 -18 1 5 19 25 19 50 26 50 14z m1320 -3 c0 -15 -42 -41 -53 -34 -5 3 1
14 14 24 27 21 39 24 39 10z m-1323 -127 c18 -43 33 -82 33 -86 0 -17 -28 -7
-33 12 -4 16 -14 20 -46 20 -28 0 -41 -4 -41 -14 0 -17 -26 -40 -33 -29 -7 14
64 184 76 180 7 -2 27 -39 44 -83z m-670 64 c-2 -8 -17 -12 -39 -10 -59 5 -96
-54 -64 -103 21 -32 76 -36 76 -5 0 11 -7 20 -15 20 -8 0 -15 5 -15 10 0 6 14
10 30 10 28 0 30 -2 30 -40 0 -36 -2 -40 -33 -45 -63 -12 -105 19 -114 84 -5
33 -1 44 20 65 21 21 36 26 77 26 37 0 50 -4 47 -12z m171 0 c-3 -7 -20 -13
-39 -13 -27 0 -35 -5 -37 -23 -3 -19 1 -22 32 -22 25 0 36 -4 36 -15 0 -10
-11 -15 -35 -15 -30 0 -35 -3 -35 -24 0 -22 5 -25 40 -28 59 -4 49 -23 -12
-23 l-53 0 -3 88 -3 87 56 0 c40 0 55 -4 53 -12z m162 -2 c0 -9 -11 -13 -32
-12 -46 2 -44 -28 2 -52 72 -35 36 -113 -45 -98 -50 10 -43 26 10 26 38 0 45
3 45 19 0 13 -11 23 -35 31 -51 17 -69 55 -39 84 20 20 94 22 94 2z m190 4 c0
-5 -14 -10 -31 -10 l-30 0 2 -77 c2 -61 -1 -78 -12 -78 -7 0 -14 9 -15 20 0
11 -1 46 -2 78 -1 31 -5 56 -9 56 -22 -4 -43 2 -43 11 0 6 30 10 70 10 40 0
70 -4 70 -10z m369 -16 c36 -46 22 -121 -26 -143 -65 -30 -123 8 -123 80 0 59
29 89 86 89 34 0 47 -5 63 -26z m276 20 c26 -10 48 -62 40 -100 -8 -43 -37
-62 -100 -66 l-50 -3 -3 88 -3 87 50 0 c27 0 57 -3 66 -6z m213 -6 c-3 -8 -20
-11 -46 -9 -39 2 -42 1 -42 -23 0 -21 5 -25 37 -28 52 -4 56 -28 4 -28 -37 0
-41 -2 -41 -25 0 -23 4 -25 46 -25 69 0 52 -24 -19 -28 l-57 -3 0 91 0 90 61
0 c43 0 60 -3 57 -12z m190 -75 c-2 -70 -6 -88 -18 -88 -12 0 -16 18 -18 88
-3 83 -2 87 18 87 20 0 21 -4 18 -87z m125 37 c11 -27 24 -50 27 -50 4 0 17
23 30 50 16 34 29 50 42 50 17 0 19 -8 16 -85 -3 -96 -21 -116 -26 -29 l-3 56
-29 -46 c-16 -25 -32 -46 -35 -46 -2 0 -16 21 -29 48 l-25 47 -1 -57 c0 -45
-3 -58 -15 -58 -17 0 -19 31 -9 118 9 67 29 68 57 2z m314 28 c35 -32 33 -109
-3 -137 -57 -45 -131 -11 -141 64 -7 58 23 95 80 95 28 0 48 -7 64 -22z m111
-30 c11 -29 22 -60 24 -68 3 -8 15 16 28 53 17 49 29 67 42 67 15 0 16 -4 6
-27 -6 -16 -21 -55 -33 -88 -13 -33 -29 -60 -36 -60 -7 0 -25 30 -40 67 -40
99 -43 108 -26 108 8 0 23 -23 35 -52z m272 42 c0 -9 -34 -15 -72 -12 -13 1
-18 -5 -18 -23 0 -20 5 -24 37 -27 52 -4 56 -28 4 -28 -37 0 -41 -2 -41 -25 0
-23 4 -25 46 -25 32 0 44 -4 41 -12 -2 -8 -24 -13 -58 -13 l-54 0 -3 88 -3 87
61 0 c33 0 60 -4 60 -10z m80 -81 c0 -68 -3 -90 -12 -87 -9 3 -14 33 -16 91
-2 73 0 87 13 87 12 0 15 -16 15 -91z m170 75 c0 -11 -6 -14 -20 -9 -26 8 -60
-3 -60 -19 0 -6 20 -22 45 -34 35 -17 45 -27 45 -46 0 -43 -69 -72 -110 -46
-21 13 -5 23 37 24 54 1 54 26 1 51 -46 21 -60 53 -38 81 18 20 100 19 100 -2z
m238 4 c17 -17 15 -38 -4 -60 -14 -15 -15 -20 -3 -34 12 -14 14 -14 21 5 4 12
14 21 23 21 17 0 19 -9 6 -43 -8 -20 -6 -27 6 -31 12 -5 13 -10 6 -17 -8 -8
-17 -8 -29 -1 -12 7 -25 7 -40 0 -16 -7 -30 -6 -50 3 -33 16 -41 42 -24 75 7
12 10 30 6 39 -16 42 49 76 82 43z m300 -71 c17 -45 32 -86 32 -90 0 -17 -21
-5 -32 18 -9 20 -18 25 -48 25 -30 0 -39 -5 -49 -27 -8 -17 -15 -23 -22 -16
-14 14 51 173 71 173 10 0 27 -30 48 -83z m108 8 l-1 -75 37 0 c20 0 39 -4 42
-9 7 -11 -27 -21 -71 -21 l-33 0 0 90 c0 68 3 90 13 90 10 0 13 -19 13 -75z
m263 49 c12 -15 21 -41 21 -61 0 -66 -83 -117 -131 -80 -42 32 -51 99 -18 141
16 21 29 26 64 26 35 0 48 -5 64 -26z m111 -68 c0 -97 -11 -126 -45 -126 -24
0 -28 21 -6 27 19 5 21 12 21 99 0 77 3 94 15 94 12 0 15 -17 15 -94z m175 16
c16 -42 31 -80 33 -84 2 -5 -3 -8 -11 -8 -9 0 -19 9 -22 20 -5 16 -15 20 -47
20 -31 0 -41 -4 -45 -20 -3 -11 -12 -20 -20 -20 -17 0 -17 -3 25 102 16 42 33
68 42 68 9 0 26 -29 45 -78z m147 21 l25 -58 29 58 c15 31 34 57 40 57 14 0
30 -139 20 -166 -11 -29 -25 -2 -28 56 l-3 55 -25 -45 c-14 -25 -30 -44 -35
-44 -5 1 -20 21 -32 44 -20 37 -23 40 -23 18 0 -40 -12 -88 -21 -88 -5 0 -9
38 -9 85 0 76 2 85 19 85 13 0 26 -17 43 -57z m288 41 c0 -14 -7 -16 -40 -11
-37 5 -40 3 -40 -19 0 -21 5 -24 35 -24 24 0 35 -5 35 -15 0 -10 -11 -15 -35
-15 -31 0 -35 -3 -35 -25 0 -23 4 -25 46 -25 32 0 44 -4 41 -12 -2 -8 -24 -13
-60 -14 l-57 0 0 88 0 88 55 0 c44 0 55 -3 55 -16z m101 -7 c9 -13 28 -40 43
-61 l26 -39 0 62 c0 48 3 61 15 61 12 0 15 -16 15 -84 0 -47 -4 -87 -10 -91
-5 -3 -29 22 -54 56 l-45 62 -3 -57 c-5 -87 -23 -67 -26 29 -3 91 7 107 39 62z
m289 13 c0 -5 -13 -10 -30 -10 l-30 0 0 -81 c0 -60 -3 -80 -12 -77 -9 3 -14
31 -16 81 -3 74 -4 77 -27 77 -14 0 -25 5 -25 10 0 6 30 10 70 10 40 0 70 -4
70 -10z m178 -10 c28 -27 30 -98 4 -130 -25 -31 -93 -33 -123 -3 -27 27 -30
89 -6 126 14 22 25 27 60 27 30 0 50 -6 65 -20z m202 -55 l0 -75 41 0 c61 0
45 -24 -19 -28 -48 -3 -52 -1 -52 20 -1 13 -2 53 -3 91 -3 59 -1 67 15 67 16
0 18 -10 18 -75z m259 49 c31 -39 28 -89 -8 -125 -61 -60 -141 -19 -141 72 0
48 33 79 86 79 34 0 47 -5 63 -26z m201 11 c-3 -5 -16 -9 -28 -7 -42 5 -72
-23 -72 -68 0 -45 18 -60 74 -60 42 0 48 -15 10 -23 -37 -7 -92 10 -104 33
-18 33 -12 92 12 117 18 20 31 23 68 21 26 -2 43 -7 40 -13z m168 -62 c18 -43
32 -84 32 -90 0 -22 -20 -14 -30 12 -8 21 -16 25 -50 25 -27 0 -40 -4 -40 -14
0 -16 -24 -38 -32 -30 -4 3 5 33 19 67 14 34 29 72 34 85 15 40 35 24 67 -55z
m112 3 l0 -75 40 -3 c58 -4 45 -23 -15 -22 l-50 0 -3 87 c-2 73 0 87 13 87 12
0 15 -14 15 -74z"/>
<path d="M1463 4217 l-42 -122 86 -3 c47 -2 87 -1 90 1 5 5 -73 227 -84 238
-5 5 -27 -47 -50 -114z"/>
<path d="M2204 4175 c-33 -22 -47 -68 -42 -135 3 -43 10 -67 24 -81 25 -25 87
-29 129 -8 l30 15 -4 104 c-2 58 -5 108 -8 113 -8 13 -108 7 -129 -8z"/>
<path d="M2674 4006 c-20 -9 -33 -23 -36 -39 -11 -55 35 -78 102 -51 38 15 40
18 40 60 l0 44 -37 0 c-21 -1 -52 -7 -69 -14z"/>
<path d="M3904 4193 c-26 -5 -59 -39 -69 -70 -6 -22 -4 -23 64 -23 82 0 101 6
101 30 0 40 -49 72 -96 63z"/>
<path d="M4972 4178 c-46 -12 -65 -61 -60 -145 5 -74 29 -113 78 -126 75 -19
123 37 122 144 0 56 -22 117 -45 124 -36 11 -66 12 -95 3z"/>
<path d="M6210 4187 c-26 -13 -56 -64 -45 -75 4 -4 42 -9 86 -11 79 -3 79 -3
79 22 0 55 -68 92 -120 64z"/>
<path d="M7472 4005 c-30 -13 -33 -18 -30 -52 4 -49 41 -64 99 -38 37 17 39
21 39 62 l0 43 -37 0 c-21 -1 -53 -7 -71 -15z"/>
<path d="M8510 4123 c-42 -16 -50 -34 -50 -120 0 -80 1 -84 26 -93 79 -30 126
7 132 103 3 52 0 66 -18 90 -21 26 -53 34 -90 20z"/>
<path d="M2862 3240 c-15 -42 -16 -40 8 -40 21 0 25 19 11 54 -7 18 -9 16 -19
-14z"/>
<path d="M3040 3270 c-39 -39 -20 -110 30 -110 33 0 60 31 60 67 0 26 -32 63
-55 63 -8 0 -24 -9 -35 -20z"/>
<path d="M3338 3267 c-8 -115 -9 -107 21 -107 43 0 65 22 64 65 -1 44 -7 50
-50 58 -29 6 -33 4 -35 -16z"/>
<path d="M4166 3274 c-19 -18 -21 -85 -4 -102 19 -19 66 -15 78 7 18 34 12 78
-12 95 -28 20 -43 20 -62 0z"/>
<path d="M5080 3271 c0 -11 4 -22 9 -25 11 -7 23 22 15 35 -9 16 -24 10 -24
-10z"/>
<path d="M5064 3196 c-9 -23 8 -39 36 -34 22 3 22 3 -4 27 -23 22 -26 22 -32
7z"/>
<path d="M5363 3230 c-11 -29 -10 -30 17 -30 28 0 28 0 14 30 -9 17 -16 30
-18 30 -1 0 -7 -13 -13 -30z"/>
<path d="M5700 3270 c-40 -40 -14 -110 41 -110 31 0 49 27 49 71 0 23 -34 59
-55 59 -8 0 -24 -9 -35 -20z"/>
<path d="M6023 3230 c-11 -29 -10 -30 17 -30 27 0 28 1 17 30 -6 17 -14 30
-17 30 -3 0 -11 -13 -17 -30z"/>
<path d="M6998 3279 c-21 -12 -25 -88 -6 -107 19 -19 66 -15 78 7 18 34 12 78
-12 95 -26 18 -36 19 -60 5z"/>
<path d="M7446 3268 c-33 -46 -13 -108 33 -108 36 0 55 23 55 67 0 58 -58 85
-88 41z"/>
<path d="M7862 3241 c-14 -39 -12 -44 16 -39 17 3 18 6 7 38 l-12 34 -11 -33z"/>
</g>
</svg>
